<?xml version="1.0" encoding="UTF-8"?>
<svg width="173.45" height="169.17" version="1.1" viewBox="0 0 173.45 169.17" xmlns="http://www.w3.org/2000/svg">
 <style>.st0{fill:#FFFFFF;}</style>
 <path d="m86.724 0c-47.886 0-86.724 38.831-86.724 86.724 0 38.317 24.846 70.824 59.312 82.294 4.329 0.8022 5.731-1.8862 5.731-4.17v-16.145c-24.124 5.2468-29.146-10.233-29.146-10.233-3.9459-10.024-9.6336-12.691-9.6336-12.691-7.8702-5.3841 0.59984-5.2685 0.59984-5.2685 8.7085 0.60707 13.29 8.9398 13.29 8.9398 7.7329 13.254 20.286 9.424 25.237 7.2053 0.77329-5.6009 3.0209-9.4312 5.507-11.592-19.26-2.2042-39.51-9.6408-39.51-42.863 0-9.4746 3.3895-17.207 8.9325-23.278-0.89615-2.1898-3.8664-11.014 0.84556-22.953 0 0 7.2848-2.3271 23.856 8.8892 6.9162-1.9224 14.331-2.8836 21.703-2.9197 7.3715 0.03614 14.794 0.99732 21.724 2.9197 16.557-11.216 23.827-8.8892 23.827-8.8892 4.7192 11.946 1.7489 20.77 0.85278 22.953 5.5648 6.0707 8.9253 13.811 8.9253 23.278 0 33.309-20.286 40.645-39.597 42.791 3.1076 2.6884 5.9478 7.9641 5.9478 16.058v23.798c0 2.3054 1.3876 5.0155 5.7888 4.1627 34.437-11.484 59.254-43.983 59.254-82.286 0-47.893-38.831-86.724-86.724-86.724z" fill="#fff" stroke-width="7.227"/>
</svg>
